<svg xmlns="http://www.w3.org/2000/svg" fill="none" viewBox="0 0 308 289">
  <g clip-path="url(#elHFiEMWg9a)">
    <path d="M4.028 8.07a4.032 4.032 0 004.027-4.035A4.032 4.032 0 004.028 0 4.032 4.032 0 000 4.035a4.032 4.032 0 004.028 4.036zm20.434 0a4.032 4.032 0 004.028-4.035A4.032 4.032 0 0024.462 0a4.032 4.032 0 00-4.027 4.035 4.032 4.032 0 004.027 4.036zm20.435 0a4.031 4.031 0 004.028-4.035A4.031 4.031 0 0044.897 0a4.032 4.032 0 00-4.028 4.035 4.032 4.032 0 004.028 4.036zm20.435 0a4.031 4.031 0 004.027-4.035A4.031 4.031 0 0065.332 0a4.032 4.032 0 00-4.028 4.035 4.032 4.032 0 004.028 4.036zm20.434 0a4.032 4.032 0 004.028-4.035A4.032 4.032 0 0085.766 0a4.031 4.031 0 00-4.028 4.035 4.031 4.031 0 004.028 4.036zm20.435 0a4.031 4.031 0 004.027-4.035A4.031 4.031 0 00106.201 0a4.031 4.031 0 00-4.028 4.035 4.031 4.031 0 004.028 4.036zm20.375 0a4.031 4.031 0 004.028-4.035A4.031 4.031 0 00126.576 0a4.032 4.032 0 00-4.028 4.035 4.032 4.032 0 004.028 4.036zm20.435 0a4.031 4.031 0 004.027-4.035A4.031 4.031 0 00147.011 0a4.031 4.031 0 00-4.028 4.035 4.031 4.031 0 004.028 4.036zm20.434 0a4.031 4.031 0 004.028-4.035A4.031 4.031 0 00167.445 0a4.031 4.031 0 00-4.027 4.035 4.031 4.031 0 004.027 4.036zm20.435 0a4.032 4.032 0 004.028-4.035A4.032 4.032 0 00187.88 0a4.032 4.032 0 00-4.028 4.035 4.032 4.032 0 004.028 4.036zM4.028 28.781a4.031 4.031 0 004.027-4.035 4.032 4.032 0 00-4.027-4.035A4.032 4.032 0 000 24.746a4.031 4.031 0 004.028 4.035zm20.434 0a4.031 4.031 0 004.028-4.035 4.032 4.032 0 00-4.028-4.035 4.032 4.032 0 00-4.027 4.035 4.031 4.031 0 004.027 4.035zm20.435 0a4.031 4.031 0 004.028-4.035 4.031 4.031 0 00-4.028-4.035 4.032 4.032 0 00-4.028 4.035 4.031 4.031 0 004.028 4.035z" fill="#E6E6E6"/>
    <path d="M65.332 28.781a4.031 4.031 0 004.027-4.035 4.031 4.031 0 00-4.027-4.035 4.032 4.032 0 00-4.028 4.035 4.031 4.031 0 004.028 4.035z" fill="#908D99"/>
    <path d="M85.766 28.781a4.031 4.031 0 004.028-4.035 4.032 4.032 0 00-4.028-4.035 4.031 4.031 0 00-4.028 4.035 4.031 4.031 0 004.028 4.035zm20.435 0a4.031 4.031 0 004.027-4.035 4.031 4.031 0 00-4.027-4.035 4.031 4.031 0 00-4.028 4.035 4.031 4.031 0 004.028 4.035zm20.375 0a4.031 4.031 0 004.028-4.035 4.031 4.031 0 00-4.028-4.035 4.032 4.032 0 00-4.028 4.035 4.032 4.032 0 004.028 4.035zm20.435 0a4.031 4.031 0 004.027-4.035 4.031 4.031 0 00-4.027-4.035 4.031 4.031 0 00-4.028 4.035 4.031 4.031 0 004.028 4.035zm20.434 0a4.031 4.031 0 004.028-4.035 4.031 4.031 0 00-4.028-4.035 4.031 4.031 0 00-4.027 4.035 4.031 4.031 0 004.027 4.035zm20.435 0a4.032 4.032 0 004.028-4.035 4.032 4.032 0 00-4.028-4.035 4.032 4.032 0 00-4.028 4.035 4.032 4.032 0 004.028 4.035zM4.028 49.551a4.032 4.032 0 004.027-4.035 4.032 4.032 0 00-4.027-4.035A4.032 4.032 0 000 45.516a4.032 4.032 0 004.028 4.035zm20.434 0a4.032 4.032 0 004.028-4.035 4.032 4.032 0 00-4.028-4.035 4.032 4.032 0 00-4.027 4.035 4.032 4.032 0 004.027 4.035zm20.435 0a4.032 4.032 0 004.028-4.035 4.031 4.031 0 00-4.028-4.035 4.032 4.032 0 00-4.028 4.035 4.032 4.032 0 004.028 4.035zm20.435 0a4.032 4.032 0 004.027-4.035 4.031 4.031 0 00-4.027-4.035 4.032 4.032 0 00-4.028 4.035 4.032 4.032 0 004.028 4.035zm20.434 0a4.032 4.032 0 004.028-4.035 4.032 4.032 0 00-4.028-4.035 4.031 4.031 0 00-4.028 4.035 4.032 4.032 0 004.028 4.035zm20.435 0a4.031 4.031 0 004.027-4.035 4.031 4.031 0 00-4.027-4.035 4.031 4.031 0 00-4.028 4.035 4.031 4.031 0 004.028 4.035zm20.375 0a4.031 4.031 0 004.028-4.035 4.031 4.031 0 00-4.028-4.035 4.032 4.032 0 00-4.028 4.035 4.032 4.032 0 004.028 4.035zm20.435 0a4.031 4.031 0 004.027-4.035 4.031 4.031 0 00-4.027-4.035 4.031 4.031 0 00-4.028 4.035 4.031 4.031 0 004.028 4.035zm20.434 0a4.031 4.031 0 004.028-4.035 4.031 4.031 0 00-4.028-4.035 4.031 4.031 0 00-4.027 4.035 4.031 4.031 0 004.027 4.035zm20.435 0a4.032 4.032 0 004.028-4.035 4.032 4.032 0 00-4.028-4.035 4.032 4.032 0 00-4.028 4.035 4.032 4.032 0 004.028 4.035zM4.028 70.262a4.032 4.032 0 004.027-4.035 4.031 4.031 0 00-4.027-4.036A4.031 4.031 0 000 66.227a4.032 4.032 0 004.028 4.035zm20.434 0a4.032 4.032 0 004.028-4.035 4.031 4.031 0 00-4.028-4.036 4.031 4.031 0 00-4.027 4.036 4.032 4.032 0 004.027 4.035zm20.435 0a4.031 4.031 0 004.028-4.035 4.031 4.031 0 00-4.028-4.036 4.031 4.031 0 00-4.028 4.036 4.032 4.032 0 004.028 4.035zm20.435 0a4.031 4.031 0 004.027-4.035 4.031 4.031 0 00-4.027-4.036 4.031 4.031 0 00-4.028 4.036 4.032 4.032 0 004.028 4.035zm20.434 0a4.032 4.032 0 004.028-4.035 4.031 4.031 0 00-4.028-4.036 4.031 4.031 0 00-4.028 4.036 4.031 4.031 0 004.028 4.035zm20.435 0a4.031 4.031 0 004.027-4.035 4.031 4.031 0 00-4.027-4.036 4.031 4.031 0 00-4.028 4.036 4.031 4.031 0 004.028 4.035zm20.375 0a4.031 4.031 0 004.028-4.035 4.031 4.031 0 00-4.028-4.036 4.032 4.032 0 00-4.028 4.036 4.032 4.032 0 004.028 4.035zm20.435 0a4.031 4.031 0 004.027-4.035 4.031 4.031 0 00-4.027-4.036 4.031 4.031 0 00-4.028 4.036 4.031 4.031 0 004.028 4.035zm20.434 0a4.031 4.031 0 004.028-4.035 4.031 4.031 0 00-4.028-4.036 4.031 4.031 0 00-4.027 4.036 4.031 4.031 0 004.027 4.035zm20.435 0a4.032 4.032 0 004.028-4.035 4.032 4.032 0 00-4.028-4.036 4.032 4.032 0 00-4.028 4.036 4.032 4.032 0 004.028 4.035zM4.028 90.973a4.032 4.032 0 004.027-4.036 4.032 4.032 0 00-4.027-4.035A4.032 4.032 0 000 86.937a4.032 4.032 0 004.028 4.036z" fill="#E6E6E6"/>
    <path d="M24.462 90.973a4.032 4.032 0 004.028-4.036 4.032 4.032 0 00-4.028-4.035 4.032 4.032 0 00-4.027 4.035 4.032 4.032 0 004.027 4.036z" fill="#908D99"/>
    <path d="M44.897 90.973a4.031 4.031 0 004.028-4.036 4.031 4.031 0 00-4.028-4.035 4.032 4.032 0 00-4.028 4.035 4.032 4.032 0 004.028 4.036zm20.435 0a4.031 4.031 0 004.027-4.036 4.031 4.031 0 00-4.027-4.035 4.032 4.032 0 00-4.028 4.035 4.032 4.032 0 004.028 4.036zm20.434 0a4.032 4.032 0 004.028-4.036 4.032 4.032 0 00-4.028-4.035 4.031 4.031 0 00-4.028 4.035 4.031 4.031 0 004.028 4.036zm20.435 0a4.031 4.031 0 004.027-4.036 4.031 4.031 0 00-4.027-4.035 4.031 4.031 0 00-4.028 4.035 4.031 4.031 0 004.028 4.036zm20.375 0a4.031 4.031 0 004.028-4.036 4.031 4.031 0 00-4.028-4.035 4.032 4.032 0 00-4.028 4.035 4.032 4.032 0 004.028 4.036zm20.435 0a4.031 4.031 0 004.027-4.036 4.031 4.031 0 00-4.027-4.035 4.031 4.031 0 00-4.028 4.035 4.031 4.031 0 004.028 4.036zm20.434 0a4.031 4.031 0 004.028-4.036 4.031 4.031 0 00-4.028-4.035 4.031 4.031 0 00-4.027 4.035 4.031 4.031 0 004.027 4.036zm20.435 0a4.032 4.032 0 004.028-4.036 4.032 4.032 0 00-4.028-4.035 4.032 4.032 0 00-4.028 4.035 4.032 4.032 0 004.028 4.036zM4.028 111.683a4.031 4.031 0 004.027-4.035 4.031 4.031 0 00-4.027-4.035A4.031 4.031 0 000 107.648a4.031 4.031 0 004.028 4.035zm20.434 0a4.031 4.031 0 004.028-4.035 4.031 4.031 0 00-4.028-4.035 4.031 4.031 0 00-4.027 4.035 4.031 4.031 0 004.027 4.035zm20.435 0a4.031 4.031 0 004.028-4.035 4.031 4.031 0 00-4.028-4.035 4.031 4.031 0 00-4.028 4.035 4.031 4.031 0 004.028 4.035zm20.435 0a4.031 4.031 0 004.027-4.035 4.031 4.031 0 00-4.027-4.035 4.031 4.031 0 00-4.028 4.035 4.031 4.031 0 004.028 4.035zm20.434 0a4.031 4.031 0 004.028-4.035 4.031 4.031 0 00-4.028-4.035 4.031 4.031 0 00-4.028 4.035 4.031 4.031 0 004.028 4.035zm20.435 0a4.03 4.03 0 004.027-4.035 4.03 4.03 0 00-4.027-4.035 4.03 4.03 0 00-4.028 4.035 4.03 4.03 0 004.028 4.035zm20.375 0a4.03 4.03 0 004.028-4.035 4.03 4.03 0 00-4.028-4.035 4.032 4.032 0 00-4.028 4.035 4.032 4.032 0 004.028 4.035zm20.435 0a4.03 4.03 0 004.027-4.035 4.03 4.03 0 00-4.027-4.035 4.03 4.03 0 00-4.028 4.035 4.03 4.03 0 004.028 4.035zm20.434 0a4.03 4.03 0 004.028-4.035 4.03 4.03 0 00-4.028-4.035 4.03 4.03 0 00-4.027 4.035 4.03 4.03 0 004.027 4.035zm20.435 0a4.032 4.032 0 004.028-4.035 4.032 4.032 0 00-4.028-4.035 4.032 4.032 0 00-4.028 4.035 4.032 4.032 0 004.028 4.035zM4.028 132.394a4.032 4.032 0 004.027-4.035 4.032 4.032 0 00-4.027-4.036A4.032 4.032 0 000 128.359a4.032 4.032 0 004.028 4.035zm20.434 0a4.032 4.032 0 004.028-4.035 4.032 4.032 0 00-4.028-4.036 4.032 4.032 0 00-4.027 4.036 4.032 4.032 0 004.027 4.035z" fill="#E6E6E6"/>
    <path d="M44.897 132.394a4.032 4.032 0 004.028-4.035 4.032 4.032 0 00-4.028-4.036 4.032 4.032 0 00-4.028 4.036 4.032 4.032 0 004.028 4.035z" fill="#908D99"/>
    <path d="M65.332 132.394a4.032 4.032 0 004.027-4.035 4.032 4.032 0 00-4.027-4.036 4.032 4.032 0 00-4.028 4.036 4.032 4.032 0 004.028 4.035zm20.434 0a4.032 4.032 0 004.028-4.035 4.032 4.032 0 00-4.028-4.036 4.032 4.032 0 00-4.028 4.036 4.032 4.032 0 004.028 4.035zm20.435 0a4.031 4.031 0 004.027-4.035 4.032 4.032 0 00-4.027-4.036 4.032 4.032 0 00-4.028 4.036 4.032 4.032 0 004.028 4.035zm20.375 0a4.032 4.032 0 004.028-4.035 4.032 4.032 0 00-4.028-4.036 4.032 4.032 0 00-4.028 4.036 4.032 4.032 0 004.028 4.035zm20.435 0a4.031 4.031 0 004.027-4.035 4.032 4.032 0 00-4.027-4.036 4.032 4.032 0 00-4.028 4.036 4.032 4.032 0 004.028 4.035zm20.434 0a4.032 4.032 0 004.028-4.035 4.032 4.032 0 00-4.028-4.036 4.032 4.032 0 00-4.027 4.036 4.031 4.031 0 004.027 4.035zm20.435 0a4.032 4.032 0 004.028-4.035 4.032 4.032 0 00-4.028-4.036 4.032 4.032 0 00-4.028 4.036 4.032 4.032 0 004.028 4.035zM4.028 153.164a4.032 4.032 0 004.027-4.035 4.032 4.032 0 00-4.027-4.036A4.032 4.032 0 000 149.129a4.032 4.032 0 004.028 4.035zm20.434 0a4.032 4.032 0 004.028-4.035 4.032 4.032 0 00-4.028-4.036 4.032 4.032 0 00-4.027 4.036 4.032 4.032 0 004.027 4.035zm20.435 0a4.032 4.032 0 004.028-4.035 4.032 4.032 0 00-4.028-4.036 4.032 4.032 0 00-4.028 4.036 4.032 4.032 0 004.028 4.035zm20.435 0a4.032 4.032 0 004.027-4.035 4.032 4.032 0 00-4.027-4.036 4.032 4.032 0 00-4.028 4.036 4.032 4.032 0 004.028 4.035zm20.434 0a4.032 4.032 0 004.028-4.035 4.032 4.032 0 00-4.028-4.036 4.032 4.032 0 00-4.028 4.036 4.032 4.032 0 004.028 4.035zm20.435 0a4.031 4.031 0 004.027-4.035 4.032 4.032 0 00-4.027-4.036 4.032 4.032 0 00-4.028 4.036 4.032 4.032 0 004.028 4.035zm20.375 0a4.032 4.032 0 004.028-4.035 4.032 4.032 0 00-4.028-4.036 4.032 4.032 0 00-4.028 4.036 4.032 4.032 0 004.028 4.035zm20.435 0a4.031 4.031 0 004.027-4.035 4.032 4.032 0 00-4.027-4.036 4.032 4.032 0 00-4.028 4.036 4.032 4.032 0 004.028 4.035zm20.434 0a4.032 4.032 0 004.028-4.035 4.032 4.032 0 00-4.028-4.036 4.032 4.032 0 00-4.027 4.036 4.031 4.031 0 004.027 4.035zm20.435 0a4.032 4.032 0 004.028-4.035 4.032 4.032 0 00-4.028-4.036 4.032 4.032 0 00-4.028 4.036 4.032 4.032 0 004.028 4.035zM8.07 169.857a4.032 4.032 0 00-4.01-4.052 4.032 4.032 0 00-4.045 4.019 4.032 4.032 0 004.011 4.052 4.031 4.031 0 004.044-4.019zm16.392 4.018a4.032 4.032 0 004.028-4.036 4.032 4.032 0 00-4.028-4.035 4.032 4.032 0 00-4.027 4.035 4.032 4.032 0 004.027 4.036zm20.435 0a4.032 4.032 0 004.028-4.036 4.032 4.032 0 00-4.028-4.035 4.032 4.032 0 00-4.028 4.035 4.032 4.032 0 004.028 4.036zm20.435 0a4.032 4.032 0 004.027-4.036 4.032 4.032 0 00-4.027-4.035 4.032 4.032 0 00-4.028 4.035 4.032 4.032 0 004.028 4.036zm20.434 0a4.032 4.032 0 004.028-4.036 4.032 4.032 0 00-4.028-4.035 4.032 4.032 0 00-4.028 4.035 4.032 4.032 0 004.028 4.036zm20.435 0a4.032 4.032 0 004.027-4.036 4.031 4.031 0 00-4.027-4.035 4.032 4.032 0 00-4.028 4.035 4.032 4.032 0 004.028 4.036zm20.375 0a4.032 4.032 0 004.028-4.036 4.032 4.032 0 00-4.028-4.035 4.032 4.032 0 00-4.028 4.035 4.032 4.032 0 004.028 4.036zm20.435 0a4.032 4.032 0 004.027-4.036 4.031 4.031 0 00-4.027-4.035 4.032 4.032 0 00-4.028 4.035 4.032 4.032 0 004.028 4.036zm20.434 0a4.032 4.032 0 004.028-4.036 4.032 4.032 0 00-4.028-4.035 4.031 4.031 0 00-4.027 4.035 4.032 4.032 0 004.027 4.036zm20.435 0a4.032 4.032 0 004.028-4.036 4.032 4.032 0 00-4.028-4.035 4.032 4.032 0 00-4.028 4.035 4.032 4.032 0 004.028 4.036zM8.058 190.581a4.032 4.032 0 00-4.012-4.052 4.031 4.031 0 00-4.044 4.019 4.032 4.032 0 004.011 4.052 4.032 4.032 0 004.045-4.019zm16.404 4.004a4.031 4.031 0 004.028-4.035 4.031 4.031 0 00-4.028-4.035 4.031 4.031 0 00-4.027 4.035 4.031 4.031 0 004.027 4.035zm20.435 0a4.031 4.031 0 004.028-4.035 4.031 4.031 0 00-4.028-4.035 4.031 4.031 0 00-4.028 4.035 4.031 4.031 0 004.028 4.035zm20.435 0a4.031 4.031 0 004.027-4.035 4.031 4.031 0 00-4.027-4.035 4.031 4.031 0 00-4.028 4.035 4.031 4.031 0 004.028 4.035zm20.434 0a4.031 4.031 0 004.028-4.035 4.031 4.031 0 00-4.028-4.035 4.031 4.031 0 00-4.028 4.035 4.031 4.031 0 004.028 4.035zm20.435 0a4.03 4.03 0 004.027-4.035 4.03 4.03 0 00-4.027-4.035 4.03 4.03 0 00-4.028 4.035 4.03 4.03 0 004.028 4.035zm20.375 0a4.03 4.03 0 004.028-4.035 4.03 4.03 0 00-4.028-4.035 4.032 4.032 0 00-4.028 4.035 4.032 4.032 0 004.028 4.035zm20.435 0a4.03 4.03 0 004.027-4.035 4.03 4.03 0 00-4.027-4.035 4.03 4.03 0 00-4.028 4.035 4.03 4.03 0 004.028 4.035zm20.434 0a4.03 4.03 0 004.028-4.035 4.03 4.03 0 00-4.028-4.035 4.03 4.03 0 00-4.027 4.035 4.03 4.03 0 004.027 4.035zm20.435 0a4.032 4.032 0 004.028-4.035 4.032 4.032 0 00-4.028-4.035 4.032 4.032 0 00-4.028 4.035 4.032 4.032 0 004.028 4.035z" fill="#E6E6E6"/>
    <path d="M237.16 36.14c2.843 0 5.094 2.314 5.094 5.103V245.74a5.098 5.098 0 01-5.094 5.104H90.742c-2.844 0-5.094-2.315-5.094-5.104V41.243a5.098 5.098 0 015.094-5.103H237.16z" fill="#E6E6E6"/>
    <path d="M91.334 245.146h145.234V41.836H91.334v203.31z" fill="#fff"/>
    <path d="M204.228 74a1 1 0 011.007 1.01v2.017a1 1 0 01-1.007 1.009h-80.613a.999.999 0 01-1.007-1.009V75.01a1 1 0 011.007-1.01h80.613zm0 9.733a1 1 0 011.007 1.009v2.017a1 1 0 01-1.007 1.01h-80.613a.999.999 0 01-1.007-1.01v-2.017a1 1 0 011.007-1.01h80.613z" fill="#E6E6E6"/>
    <path d="M204.228 93.406a1 1 0 011.007 1.009v2.017a1 1 0 01-1.007 1.01h-80.613a.999.999 0 01-1.007-1.01v-2.017a1 1 0 011.007-1.01h80.613z" fill="#908D99"/>
    <path d="M204.228 103.375a1 1 0 011.007 1.009v2.018a1 1 0 01-1.007 1.009h-80.613a1 1 0 01-1.007-1.009v-2.018a1 1 0 011.007-1.009h80.613zm0 9.673a1 1 0 011.007 1.009v2.018a1 1 0 01-1.007 1.009h-80.613a1 1 0 01-1.007-1.009v-2.018a1 1 0 011.007-1.009h80.613zm0 9.733a.999.999 0 011.007 1.008v2.018a1 1 0 01-1.007 1.009h-80.613a1 1 0 01-1.007-1.009v-2.018a.999.999 0 011.007-1.008h80.613z" fill="#E6E6E6"/>
    <path d="M124.148 155.478a1.19 1.19 0 00-1.185 1.187v55.13a1.19 1.19 0 001.185 1.187h79.428a1.19 1.19 0 001.185-1.187v-55.13a1.19 1.19 0 00-1.185-1.187h-79.428z" fill="#908D99"/>
    <path d="M164.188 95.66l-.83-.237 18.244-68.6h105.549v.89H182.253l-18.065 67.948z" fill="#0F2A48"/>
    <path d="M295.739 36.318c-4.975 0-9.062-4.035-9.062-9.08 0-4.984 4.028-9.08 9.062-9.08 4.976 0 9.063 4.036 9.063 9.08a9.034 9.034 0 01-9.063 9.08zm0-17.269c-4.501 0-8.174 3.68-8.174 8.19s3.673 8.189 8.174 8.189c4.502 0 8.174-3.68 8.174-8.19.059-4.51-3.613-8.189-8.174-8.189z" fill="#0F2A48"/>
    <path d="M295.739 30.68a3.439 3.439 0 003.436-3.442c0-1.9-1.538-3.441-3.436-3.441a3.439 3.439 0 00-3.435 3.441 3.439 3.439 0 003.435 3.442z" fill="#908D99"/>
    <path d="M161.404 211.795l.829.237-18.361 68.541-105.55-.178v-.89l104.898.238 18.184-67.948z" fill="#0F2A48"/>
    <path d="M29.734 270.9c4.975 0 9.062 4.095 9.062 9.08s-4.087 9.079-9.062 9.079c-4.976 0-9.063-4.094-9.063-9.079a9.034 9.034 0 019.063-9.08zm-.06 17.269c4.502 0 8.175-3.679 8.234-8.189 0-4.51-3.673-8.189-8.174-8.249-4.502 0-8.174 3.679-8.233 8.19 0 4.569 3.672 8.248 8.174 8.248z" fill="#0F2A48"/>
    <path d="M29.734 283.362a3.438 3.438 0 003.435-3.441 3.439 3.439 0 00-3.435-3.442 3.439 3.439 0 00-3.436 3.442 3.438 3.438 0 003.436 3.441z" fill="#908D99"/>
  </g>
  <defs>
    <clipPath id="elHFiEMWg9a">
      <path fill="#fff" d="M0 0h308v289H0z"/>
    </clipPath>
  </defs>
</svg>
