<svg xmlns="http://www.w3.org/2000/svg" fill="none" viewBox="0 0 367 263">
  <path d="M16.962 53.548c3.23 0 5.848-2.628 5.848-5.87 0-3.24-2.618-5.868-5.848-5.868s-5.848 2.627-5.848 5.869c0 3.241 2.618 5.87 5.848 5.87zm17.544 0c3.23 0 5.848-2.628 5.848-5.87 0-3.24-2.618-5.868-5.848-5.868s-5.848 2.627-5.848 5.869c0 3.241 2.618 5.87 5.848 5.87zm17.544 0c3.23 0 5.848-2.628 5.848-5.87 0-3.24-2.619-5.868-5.848-5.868-3.23 0-5.848 2.627-5.848 5.869 0 3.241 2.618 5.87 5.848 5.87zm17.543 0c3.23 0 5.848-2.628 5.848-5.87 0-3.24-2.618-5.868-5.848-5.868s-5.848 2.627-5.848 5.869c0 3.241 2.619 5.87 5.848 5.87zm17.544 0c3.23 0 5.848-2.628 5.848-5.87 0-3.24-2.618-5.868-5.848-5.868s-5.848 2.627-5.848 5.869c0 3.241 2.618 5.87 5.848 5.87zm17.544 0c3.23 0 5.848-2.628 5.848-5.87 0-3.24-2.618-5.868-5.848-5.868s-5.848 2.627-5.848 5.869c0 3.241 2.618 5.87 5.848 5.87zm17.544 0c3.229 0 5.848-2.628 5.848-5.87 0-3.24-2.619-5.868-5.848-5.868-3.23 0-5.848 2.627-5.848 5.869 0 3.241 2.618 5.87 5.848 5.87z" fill="#E6E6E6"/>
  <path d="M135.738 54.826H3.448c-.63 0-1.235-.252-1.681-.7a2.396 2.396 0 01-.698-1.688V42.92c0-.633.252-1.24.698-1.688a2.378 2.378 0 011.682-.7h132.289c.631 0 1.236.252 1.682.7.446.448.697 1.055.698 1.688v9.518a2.398 2.398 0 01-.698 1.688c-.446.448-1.051.7-1.682.7zM3.448 41.486A1.437 1.437 0 002.02 42.92v9.519c.001.38.152.744.42 1.013.267.268.63.42 1.009.42h132.289a1.435 1.435 0 001.428-1.433V42.92a1.435 1.435 0 00-1.428-1.433H3.448zM31.76 1.372a1.376 1.376 0 011.367 1.372v29.74c0 .363-.145.712-.401.969a1.367 1.367 0 01-.967.402H2.735c-.363 0-.71-.145-.967-.402a1.377 1.377 0 01-.4-.97V2.745a1.366 1.366 0 011.367-1.372h29.024zm0-1.372H2.734C2.009 0 1.314.29.8.804a2.75 2.75 0 00-.8 1.94v29.74c0 .727.288 1.425.801 1.94a2.73 2.73 0 001.934.804h29.024c.726 0 1.421-.29 1.934-.804a2.75 2.75 0 00.801-1.94V2.743a2.75 2.75 0 00-.8-1.94A2.73 2.73 0 0031.758 0z" fill="#E6E6E6"/>
  <path d="M27.233 9.19H7.868a.681.681 0 01-.688-.687.688.688 0 01.688-.686h19.365a.682.682 0 01.688.686.689.689 0 01-.425.635.682.682 0 01-.263.051zm0 4.858H7.868a.681.681 0 01-.688-.686.688.688 0 01.688-.686h19.365a.682.682 0 01.688.686.689.689 0 01-.688.686zm0 4.859H7.868a.68.68 0 01-.635-.422.688.688 0 01.635-.95h19.365a.684.684 0 01.636.95.688.688 0 01-.636.422zm0 4.859H7.868a.681.681 0 01-.688-.686.688.688 0 01.688-.686h19.365a.682.682 0 01.688.686.689.689 0 01-.688.686zm0 4.86H7.868a.682.682 0 01-.684-.687.687.687 0 01.684-.686h19.365a.682.682 0 01.684.686.687.687 0 01-.684.687z" fill="#3B6187"/>
  <path d="M130.892 1.372c.362 0 .71.145.966.403.256.257.4.606.401.97v29.738a1.38 1.38 0 01-.401.97 1.366 1.366 0 01-.966.402h-29.025a1.368 1.368 0 01-1.367-1.372V2.745a1.368 1.368 0 011.367-1.372h29.025zm0-1.372h-29.025a2.73 2.73 0 00-1.934.804 2.75 2.75 0 00-.8 1.94v29.74c0 .727.287 1.425.8 1.94a2.73 2.73 0 001.934.804h29.025c.725 0 1.42-.29 1.933-.804a2.749 2.749 0 00.801-1.94V2.743a2.75 2.75 0 00-.801-1.94A2.729 2.729 0 00130.892 0z" fill="#E6E6E6"/>
  <path d="M126.364 9.19h-19.365a.684.684 0 01-.486-1.174.688.688 0 01.486-.199h19.365a.682.682 0 01.68.686.689.689 0 01-.68.686zm0 4.858h-19.365a.684.684 0 01-.486-1.172.689.689 0 01.486-.2h19.365a.682.682 0 01.68.686.69.69 0 01-.68.686zm0 4.859h-19.365a.682.682 0 01-.688-.686.682.682 0 01.202-.487.689.689 0 01.486-.2h19.365a.682.682 0 01.68.687.69.69 0 01-.68.686zm0 4.859h-19.365a.684.684 0 01-.486-1.172.687.687 0 01.486-.2h19.365a.682.682 0 01.68.686.69.69 0 01-.68.686zm0 4.86h-19.365a.682.682 0 01-.683-.687.688.688 0 01.683-.686h19.365a.682.682 0 01.684.686.688.688 0 01-.684.687zm103.178 29.926a1.368 1.368 0 011.368 1.373v29.738a1.368 1.368 0 01-1.368 1.372h-29.025c-.362 0-.71-.145-.966-.402a1.38 1.38 0 01-.401-.97V59.925a1.38 1.38 0 01.401-.97c.256-.258.604-.402.966-.403h29.025zm0-1.372h-29.025c-.725 0-1.42.29-1.933.804a2.75 2.75 0 00-.801 1.94v29.74c0 .727.288 1.425.801 1.94a2.729 2.729 0 001.933.804h29.025c.725 0 1.421-.29 1.934-.804a2.75 2.75 0 00.801-1.94v-29.74a2.75 2.75 0 00-.801-1.94 2.731 2.731 0 00-1.934-.804z" fill="#3B6187"/>
  <path d="M225.015 66.37H205.65a.682.682 0 01-.688-.687.693.693 0 01.425-.635.68.68 0 01.263-.051h19.365a.684.684 0 01.679.686.688.688 0 01-.679.686zm0 4.858H205.65a.686.686 0 010-1.372h19.365a.685.685 0 010 1.372zm0 4.859H205.65a.684.684 0 01-.486-1.172.689.689 0 01.486-.2h19.365a.683.683 0 01.679.686.683.683 0 01-.679.686zm0 4.859H205.65a.68.68 0 01-.636-.422.7.7 0 010-.527.693.693 0 01.636-.423h19.365a.684.684 0 01.679.686.684.684 0 01-.679.686zm0 4.86H205.65a.68.68 0 01-.636-.423.7.7 0 010-.527.694.694 0 01.373-.372.68.68 0 01.263-.05h19.365a.684.684 0 01.679.685.688.688 0 01-.679.687z" fill="#3B6187"/>
  <path d="M81.705 35.228H51.921a3.036 3.036 0 01-2.148-.894 3.059 3.059 0 01-.89-2.156v-21.39c0-.809.32-1.584.89-2.155a3.036 3.036 0 012.148-.895h29.784a3.04 3.04 0 012.148.894c.57.572.89 1.347.89 2.156v21.39a3.06 3.06 0 01-.89 2.156 3.036 3.036 0 01-2.148.894zM51.921 9.11a1.67 1.67 0 00-1.181.491c-.314.315-.49.741-.49 1.186v21.39c0 .445.176.871.49 1.186a1.67 1.67 0 001.18.491h29.785a1.67 1.67 0 001.181-.491c.314-.315.49-.74.49-1.185v-21.39c0-.445-.176-.871-.49-1.186a1.67 1.67 0 00-1.18-.491H51.92z" fill="#E6E6E6"/>
  <path d="M76.496 17.31H57.13a.682.682 0 01-.68-.686.688.688 0 01.68-.686h19.365a.681.681 0 01.635.422.689.689 0 01-.635.95zm0 4.86H57.13a.682.682 0 01-.68-.687.687.687 0 01.68-.686h19.365a.683.683 0 01.635.95.686.686 0 01-.635.422zm0 4.858H57.13a.683.683 0 01-.68-.686.687.687 0 01.68-.686h19.365a.683.683 0 01.635.95.687.687 0 01-.635.422z" fill="#3B6187"/>
  <path d="M180.536 47.081l-28.606-8.326a3.04 3.04 0 01-1.814-1.46 3.062 3.062 0 01-.258-2.318l5.936-20.544a3.05 3.05 0 011.454-1.821 3.03 3.03 0 012.31-.259l28.606 8.326a3.044 3.044 0 011.815 1.46c.388.708.481 1.542.257 2.319L184.3 45.002a3.049 3.049 0 01-1.454 1.82 3.03 3.03 0 01-2.31.259zm-21.358-33.41a1.668 1.668 0 00-1.271.143 1.68 1.68 0 00-.8 1.001l-5.936 20.544a1.682 1.682 0 001.14 2.078l28.606 8.326a1.676 1.676 0 002.07-1.143l5.936-20.545a1.682 1.682 0 00-1.139-2.078l-28.606-8.326z" fill="#E6E6E6"/>
  <path d="M180.505 28.416l-18.599-5.413a.684.684 0 01-.465-.85.686.686 0 01.846-.468l18.598 5.413a.68.68 0 01.409.328.687.687 0 01-.789.99zm-1.349 4.667l-18.599-5.413a.68.68 0 01-.408-.329.696.696 0 01-.058-.522.689.689 0 01.581-.49.68.68 0 01.266.023l18.599 5.413a.687.687 0 01-.381 1.318zm-1.348 4.667l-18.599-5.414a.687.687 0 01.381-1.318l18.599 5.413a.688.688 0 01.139 1.26.681.681 0 01-.52.059z" fill="#3B6187"/>
  <path d="M367 261.708H66.974V263H367v-1.292zm-125.825-2.019h-48.789l1.654-21.579h45.481l1.654 21.579z" fill="#E6E6E6"/>
  <path d="M244.482 257.199h-54.577v4.98h54.577v-4.98z" fill="#E6E6E6"/>
  <path d="M310.223 99.093H123.751a4.95 4.95 0 00-3.508 1.459 4.986 4.986 0 00-1.453 3.521v114.118h196.394V104.073a4.984 4.984 0 00-3.062-4.6 4.949 4.949 0 00-1.899-.38z" fill="#0F2A48"/>
  <path d="M118.79 218.191v18.674a4.984 4.984 0 003.063 4.601c.601.25 1.247.379 1.898.379h186.472a4.95 4.95 0 003.508-1.459 4.986 4.986 0 001.453-3.521v-18.674H118.79zm186.885-108.723H128.713v99.594h176.962v-99.594z" fill="#E6E6E6"/>
  <path d="M217.194 234.79c2.74 0 4.961-2.229 4.961-4.979 0-2.751-2.221-4.98-4.961-4.98s-4.962 2.229-4.962 4.98c0 2.75 2.222 4.979 4.962 4.979z" fill="#0F2A48"/>
  <path d="M134.231 113.674c.52 0 .941-.423.941-.945a.943.943 0 00-.941-.945.944.944 0 00-.942.945c0 .522.422.945.942.945zm3.574 0c.52 0 .941-.423.941-.945a.943.943 0 00-.941-.945.944.944 0 00-.942.945c0 .522.422.945.942.945zm3.574 0c.52 0 .941-.423.941-.945a.943.943 0 00-.941-.945.944.944 0 00-.942.945c0 .522.422.945.942.945zm159.196 2.266H133.289v83.643h167.286V115.94z" fill="#fff"/>
  <path d="M144.409 128.663a.591.591 0 00-.591.593v30.003a.593.593 0 00.591.593h34.522a.589.589 0 00.591-.593v-30.003a.593.593 0 00-.591-.593h-34.522zm55.429.096a.591.591 0 00-.592.594v29.906a.594.594 0 00.592.593h34.411a.598.598 0 00.592-.593v-29.906a.595.595 0 00-.592-.594h-34.411zm54.847-.313a.593.593 0 00-.591.593v30.22a.589.589 0 00.591.593h34.77a.589.589 0 00.591-.593v-30.22a.593.593 0 00-.591-.593h-34.77zM145.04 174.703a1.223 1.223 0 00-1.22 1.228 1.226 1.226 0 001.22 1.227h32.457a1.227 1.227 0 000-2.455H145.04z" fill="#E6E6E6"/>
  <path d="M145.04 180.54a1.223 1.223 0 00-1.22 1.228 1.222 1.222 0 001.22 1.227h14.614a1.222 1.222 0 001.22-1.227 1.228 1.228 0 00-1.22-1.228H145.04z" fill="#3B6187"/>
  <path d="M201.065 174.703a1.225 1.225 0 00-1.221 1.228c0 .325.129.636.357.866.229.231.54.36.864.361h32.457a1.226 1.226 0 00.863-2.094 1.223 1.223 0 00-.863-.361h-32.457z" fill="#E6E6E6"/>
  <path d="M201.065 180.54a1.225 1.225 0 00-1.221 1.228 1.224 1.224 0 001.221 1.227h14.613a1.23 1.23 0 000-2.455h-14.613z" fill="#3B6187"/>
  <path d="M255.689 174.703a1.228 1.228 0 000 2.455h32.457a1.226 1.226 0 00.863-2.094 1.223 1.223 0 00-.863-.361h-32.457zm-110.649-6.028a1.222 1.222 0 00-1.22 1.227c0 .325.128.637.357.867.229.23.539.36.863.36h32.457a1.23 1.23 0 00.863-2.094 1.22 1.22 0 00-.863-.36H145.04zm56.025 0a1.224 1.224 0 00-1.221 1.227 1.22 1.22 0 001.221 1.227h32.457c.324 0 .634-.13.863-.36a1.228 1.228 0 00-.863-2.094h-32.457zm54.624 0a1.23 1.23 0 00-.863 2.094c.228.23.539.36.863.36h32.457c.324 0 .634-.13.863-.36a1.228 1.228 0 00-.863-2.094h-32.457z" fill="#E6E6E6"/>
  <path d="M255.689 180.54a1.23 1.23 0 00-.863 2.095c.228.23.539.359.863.36h14.613a1.222 1.222 0 001.221-1.227 1.23 1.23 0 00-1.221-1.228h-14.613z" fill="#3B6187"/>
</svg>
