<svg xmlns="http://www.w3.org/2000/svg" fill="none" viewBox="0 0 538 243">
  <path d="M161.616 13.404a9.224 9.224 0 006.961 1.04c.216-.058.324.346.054.404-2.482.636-5.072.231-7.285-1.098-.108-.115.054-.462.27-.346zm-.108 11.959c.971 2.369 2.752 4.275 5.018 5.315.216.116.054.462-.161.347-2.321-1.098-4.156-3.062-5.181-5.546-.108-.174.27-.347.324-.116zm20.02 4.853c-.486.867-.594 1.965-.216 2.889.108.231-.27.347-.378.115-.431-1.04-.378-2.195.216-3.177.054-.116.162-.116.27-.116.108.116.162.231.108.29zm150.769 212.495h-183.2V46.566h183.2v196.145z" fill="#fff"/>
  <path d="M332.297 242.711h-183.2V46.566h183.2v196.145zm-180.448-2.889h177.804V49.455H151.849v190.367z" fill="#F0F0F0"/>
  <path d="M304.345 130.917H186.87v4.449h117.475v-4.449zm0 11.497H186.87v4.449h117.475v-4.449zm0 11.555H186.87v4.449h117.475v-4.449zm-124.598-17.332c1.49 0 2.698-1.293 2.698-2.889 0-1.595-1.208-2.889-2.698-2.889s-2.698 1.294-2.698 2.889c0 1.596 1.208 2.889 2.698 2.889z" fill="#3B6187"/>
  <path d="M304.345 81.173H186.87v4.449h117.475v-4.449zm0 11.497H186.87v4.45h117.475v-4.45zm0 11.555H186.87v4.449h117.475v-4.449zM179.747 86.43c1.49 0 2.698-1.293 2.698-2.888s-1.208-2.889-2.698-2.889-2.698 1.294-2.698 2.889c0 1.595 1.208 2.889 2.698 2.889zm124.598 94.693H186.87v4.449h117.475v-4.449zm0 11.555H186.87v4.449h117.475v-4.449zm0 11.555H186.87v4.449h117.475v-4.449z" fill="#F0F0F0"/>
  <path d="M179.747 186.381c1.49 0 2.698-1.293 2.698-2.889 0-1.595-1.208-2.889-2.698-2.889s-2.698 1.294-2.698 2.889c0 1.596 1.208 2.889 2.698 2.889z" fill="#E5E5E5"/>
  <path d="M430.67 165.235H324.041c-1.619 0-2.914-2.831-2.914-6.355V73.952c0-3.525 1.295-6.356 2.914-6.356h106.575c1.619 0 2.914 2.831 2.914 6.355v84.929c0 3.524-1.295 6.355-2.86 6.355z" fill="#fff"/>
  <path d="M430.67 165.235H324.041c-1.619 0-2.914-2.831-2.914-6.355V73.952c0-3.525 1.295-6.356 2.914-6.356h106.575c1.619 0 2.914 2.831 2.914 6.355v84.929c0 3.524-1.295 6.355-2.86 6.355zM324.041 70.196c-.971 0-1.727 1.676-1.727 3.813v84.929c0 2.08.756 3.813 1.727 3.813h106.575c.971 0 1.727-1.675 1.727-3.813V74.009c0-2.08-.756-3.813-1.727-3.813H324.041z" fill="#E6E6E6"/>
  <path d="M391.817 136.868H363.11v2.311h28.707v-2.311zm3.562 6.009h-36.101v2.311h36.101v-2.311z" fill="#3B6187"/>
  <path d="M396.08 107.75c0 11.092-8.418 20.047-18.725 20.047-3.075 0-6.151-.808-8.849-2.368-9.12-5.258-12.519-17.448-7.609-27.154 4.911-9.707 16.297-13.404 25.362-8.147 6.044 3.467 9.821 10.226 9.821 17.622z" fill="#CACACA"/>
  <path d="M377.463 106.767c2.802 0 5.073-2.431 5.073-5.43 0-3-2.271-5.431-5.073-5.431-2.801 0-5.072 2.431-5.072 5.431 0 2.999 2.271 5.43 5.072 5.43zm8.688 11.267c-5.72 2.137-11.925 2.137-17.591-.058l3.777-8.031h10.199l3.615 8.089z" fill="#fff"/>
  <path d="M302.24 195.567h80.026v-37.496h-1.241v36.225H302.24v1.271z" fill="#3F3D56"/>
  <path d="M381.618 171.359c3.726 0 6.746-3.233 6.746-7.221 0-3.989-3.02-7.222-6.746-7.222-3.725 0-6.745 3.233-6.745 7.222 0 3.988 3.02 7.221 6.745 7.221z" fill="#3F3D56"/>
  <path d="M154.385 113.238H47.756c-1.619 0-2.914-2.831-2.914-6.355V21.954c0-3.524 1.295-6.355 2.914-6.355h106.575c1.619 0 2.914 2.831 2.914 6.355v84.929c0 3.524-1.295 6.355-2.86 6.355z" fill="#fff"/>
  <path d="M154.385 113.238H47.756c-1.619 0-2.914-2.831-2.914-6.355V21.954c0-3.524 1.295-6.355 2.914-6.355h106.575c1.619 0 2.914 2.831 2.914 6.355v84.929c0 3.524-1.295 6.355-2.86 6.355zM47.756 18.199c-.971 0-1.727 1.675-1.727 3.813v84.929c0 2.08.756 3.813 1.727 3.813h106.575c.971 0 1.727-1.676 1.727-3.813V22.012c0-2.08-.756-3.813-1.727-3.813H47.756z" fill="#E6E6E6"/>
  <path d="M124.76 42.175c-4.749-5.373-11.278-8.55-18.185-8.839v28.367l18.185-19.528z" fill="#3F3D56"/>
  <path d="M124.76 45.7l-18.185 19.47h25.416c0-7.222-2.59-14.213-7.231-19.47z" fill="#E4E4E4"/>
  <path d="M131.991 67.192c0 1.79-.162 3.524-.432 5.257 0 .116-.054.29-.054.405-.593 3.004-1.619 5.95-3.076 8.608-.054.116-.162.29-.216.405a28.712 28.712 0 01-5.342 6.76c-.108.115-.216.173-.324.288-4.478 4.044-10.09 6.355-15.972 6.586V67.134h25.416v.058z" fill="#F0F0F0"/>
  <path d="M103.985 95.56h1.025V67.191L85.8 87.817c4.91 5.027 11.44 7.8 18.185 7.742z" fill="#CACACA"/>
  <path d="M104.039 36.803c-14.624 0-26.496 12.71-26.496 28.367h27.575V36.86c-.378-.057-.756-.057-1.079-.057zm-6.314 30.389l-5.558 5.95-.162.174-4.857 5.2-.161.173-5.235 5.604-.162.173-3.022 3.236c-5.288-5.373-8.31-12.826-8.31-20.626l27.467.116z" fill="#3B6187"/>
  <path d="M187.194 144.725h-79.972V107.23h1.241v36.224h78.731v1.271z" fill="#3F3D56"/>
  <path d="M408.761 211.975c2.375-.635 3.993-3.004 3.832-5.604 0-.231-.378-.231-.378 0 .162 2.426-1.349 4.68-3.562 5.2-.215.057-.108.462.108.404zm-3.615-10.977a2.537 2.537 0 01-2.698-.173c-.216-.116-.378.231-.162.346a3.024 3.024 0 002.968.174c.108-.058.162-.174.108-.232-.054-.115-.162-.173-.216-.115zm-12.411 18.257c1.564-2.022 1.511-4.969-.108-6.933-.162-.174-.432.057-.27.231 1.511 1.849 1.565 4.564.108 6.471-.216.173.108.404.27.231zm-9.12-6.413a2.839 2.839 0 01-2.212 1.617c-.216 0-.162.405.054.405 1.025-.116 1.996-.809 2.482-1.791.054-.116.054-.231-.054-.289-.108-.058-.216-.058-.27.058zm-248.656 0a2.837 2.837 0 002.212 1.617c.216 0 .162.405-.054.405-1.025-.116-1.996-.809-2.482-1.791-.054-.116-.054-.231.054-.289.108-.058.216-.058.27.058z" fill="#fff"/>
</svg>
