<svg xmlns="http://www.w3.org/2000/svg" fill="none" viewBox="0 0 399 285">
  <path d="M18.441 58.028a6.36 6.36 0 006.358-6.36 6.36 6.36 0 00-6.358-6.361 6.36 6.36 0 00-6.358 6.36 6.36 6.36 0 006.358 6.36zm19.073 0a6.36 6.36 0 006.358-6.36 6.36 6.36 0 00-6.358-6.361 6.36 6.36 0 00-6.357 6.36 6.36 6.36 0 006.357 6.36zm19.074 0a6.36 6.36 0 006.358-6.36 6.36 6.36 0 00-6.358-6.361 6.36 6.36 0 00-6.358 6.36 6.36 6.36 0 006.358 6.36zm19.073 0a6.36 6.36 0 006.358-6.36 6.36 6.36 0 00-6.358-6.361 6.36 6.36 0 00-6.357 6.36 6.36 6.36 0 006.357 6.36zm19.074 0a6.36 6.36 0 006.358-6.36 6.36 6.36 0 10-12.716 0 6.36 6.36 0 006.358 6.36zm19.073 0a6.359 6.359 0 006.358-6.36 6.359 6.359 0 10-12.715 0 6.359 6.359 0 006.357 6.36zm19.074 0a6.36 6.36 0 006.358-6.36 6.359 6.359 0 10-12.716 0 6.359 6.359 0 006.358 6.36z" fill="#E6E6E6"/>
  <path d="M147.574 59.413H3.749a2.59 2.59 0 01-2.587-2.589V46.51a2.592 2.592 0 012.587-2.588h143.825a2.59 2.59 0 012.587 2.588v10.314a2.593 2.593 0 01-2.587 2.589zM3.749 44.957a1.554 1.554 0 00-1.552 1.553v10.314a1.555 1.555 0 001.552 1.553h143.825a1.555 1.555 0 001.552-1.553V46.51a1.557 1.557 0 00-1.552-1.553H3.749zm30.78-43.47a1.488 1.488 0 011.486 1.487V35.2a1.49 1.49 0 01-1.486 1.487H2.973A1.488 1.488 0 011.487 35.2V2.974a1.49 1.49 0 011.486-1.487H34.53zm0-1.487H2.973A2.973 2.973 0 000 2.974V35.2a2.975 2.975 0 002.973 2.974H34.53a2.973 2.973 0 002.973-2.974V2.974A2.975 2.975 0 0034.529 0z" fill="#E6E6E6"/>
  <path d="M29.607 9.958H8.553a.743.743 0 110-1.487h21.054a.743.743 0 110 1.487zm0 5.266H8.553a.743.743 0 110-1.488h21.054a.743.743 0 110 1.488zm0 5.265H8.553a.743.743 0 110-1.487h21.054a.743.743 0 110 1.487zm0 5.266H8.553a.743.743 0 110-1.488h21.054a.743.743 0 110 1.488zm0 5.265H8.553a.743.743 0 110-1.487h21.054a.743.743 0 010 1.487z" fill="#CB8367"/>
  <path d="M142.304 1.487a1.488 1.488 0 011.487 1.487V35.2a1.486 1.486 0 01-1.487 1.487h-31.555a1.49 1.49 0 01-1.487-1.487V2.974a1.49 1.49 0 011.487-1.487h31.555zm0-1.487h-31.555a2.97 2.97 0 00-2.973 2.974V35.2a2.973 2.973 0 002.973 2.974h31.555a2.974 2.974 0 002.974-2.974V2.974A2.977 2.977 0 00142.304 0z" fill="#E6E6E6"/>
  <path d="M137.382 9.958h-21.053a.745.745 0 110-1.487h21.053a.742.742 0 01.523 1.268.742.742 0 01-.523.219zm0 5.266h-21.053a.745.745 0 110-1.488h21.053a.742.742 0 01.523 1.268.743.743 0 01-.523.22zm0 5.265h-21.053a.745.745 0 01-.286-1.432.745.745 0 01.286-.055h21.053a.742.742 0 01.523 1.267.742.742 0 01-.523.22zm0 5.266h-21.053a.745.745 0 01-.286-1.432.745.745 0 01.286-.056h21.053a.742.742 0 01.739.744.745.745 0 01-.739.744zm0 5.265h-21.053a.745.745 0 01-.526-1.27.746.746 0 01.526-.217h21.053a.742.742 0 01.526 1.27.742.742 0 01-.526.217zm112.175 32.43a1.49 1.49 0 011.486 1.487v32.226a1.49 1.49 0 01-1.486 1.487h-31.556a1.486 1.486 0 01-1.486-1.487V64.937a1.486 1.486 0 011.486-1.487h31.556zm0-1.487h-31.556a2.973 2.973 0 00-2.973 2.974v32.226a2.973 2.973 0 002.973 2.975h31.556a2.972 2.972 0 002.973-2.975V64.937a2.973 2.973 0 00-2.973-2.974z" fill="#CB8367"/>
  <path d="M244.635 71.921h-21.054a.745.745 0 01-.691-1.03.744.744 0 01.691-.457h21.054a.742.742 0 01.738.743.741.741 0 01-.738.744zm0 5.266h-21.054a.741.741 0 01-.743-.744.741.741 0 01.743-.743h21.054a.741.741 0 01.743.743.741.741 0 01-.743.744zm0 5.265h-21.054a.738.738 0 01-.528-.216.756.756 0 01-.219-.528.755.755 0 01.219-.527.747.747 0 01.528-.216h21.054a.742.742 0 01.522 1.268.742.742 0 01-.522.219zm0 5.266h-21.054a.745.745 0 01-.691-1.03.744.744 0 01.691-.458h21.054a.742.742 0 01.738.744.741.741 0 01-.738.743zm0 5.265h-21.054a.745.745 0 01-.691-1.029.745.745 0 01.691-.458h21.054a.742.742 0 01.738.744.741.741 0 01-.738.743z" fill="#CB8367"/>
  <path d="M88.83 38.175H56.447a3.306 3.306 0 01-3.303-3.305V11.69a3.31 3.31 0 013.303-3.304h32.381a3.306 3.306 0 013.304 3.304v23.18a3.309 3.309 0 01-3.303 3.305zM56.447 9.873a1.818 1.818 0 00-1.817 1.817v23.18a1.82 1.82 0 001.817 1.817h32.381a1.818 1.818 0 001.817-1.817V11.69a1.82 1.82 0 00-1.817-1.817h-32.38z" fill="#E6E6E6"/>
  <path d="M83.165 18.758H62.112a.743.743 0 010-1.487h21.053a.743.743 0 110 1.487zm0 5.266H62.112a.743.743 0 010-1.487h21.053a.743.743 0 110 1.487zm0 5.266H62.112a.743.743 0 010-1.488h21.053a.743.743 0 110 1.487z" fill="#CB8367"/>
  <path d="M196.277 51.02l-31.1-9.023a3.305 3.305 0 01-2.252-4.094l6.453-22.263a3.31 3.31 0 014.093-2.254l31.1 9.023a3.31 3.31 0 012.253 4.094l-6.454 22.263a3.306 3.306 0 01-4.093 2.253zm-23.22-36.205a1.82 1.82 0 00-2.251 1.24l-6.454 22.262a1.822 1.822 0 001.239 2.251l31.1 9.023a1.82 1.82 0 002.251-1.24l6.454-22.262a1.82 1.82 0 00-1.239-2.252l-31.1-9.022z" fill="#E6E6E6"/>
  <path d="M196.244 30.793l-20.221-5.866a.744.744 0 01.414-1.428l20.221 5.866a.744.744 0 01-.415 1.428h.001zm-1.467 5.057l-20.22-5.866a.738.738 0 01-.444-.356.75.75 0 01-.063-.565.742.742 0 01.921-.507l20.221 5.866a.744.744 0 01-.415 1.428zm-1.466 5.057l-20.22-5.866a.744.744 0 01.414-1.428l20.221 5.866a.744.744 0 01-.415 1.428z" fill="#CB8367"/>
  <path d="M399 283.6H72.814v1.4H399v-1.4zm-136.796-2.189h-53.043l1.798-23.383h49.447l1.798 23.383z" fill="#E6E6E6"/>
  <path d="M265.8 278.714h-59.336v5.396H265.8v-5.396z" fill="#E6E6E6"/>
  <path d="M337.272 107.382H134.541a5.395 5.395 0 00-5.394 5.396v123.665h213.519V112.778a5.402 5.402 0 00-1.58-3.815 5.378 5.378 0 00-3.814-1.581z" fill="#3F3D56"/>
  <path d="M129.147 236.443v20.236a5.4 5.4 0 005.394 5.396h202.731a5.39 5.39 0 005.394-5.396v-20.236H129.147zm203.181-117.818H139.936V226.55h192.392V118.625z" fill="#E6E6E6"/>
  <path d="M236.132 254.431a5.395 5.395 0 005.394-5.397 5.395 5.395 0 10-10.788 0 5.395 5.395 0 005.394 5.397z" fill="#3F3D56"/>
  <path d="M145.934 123.183a1.023 1.023 0 10.001-2.047 1.023 1.023 0 00-.001 2.047zm3.886 0a1.024 1.024 0 100-2.048 1.024 1.024 0 000 2.048zm3.886 0a1.023 1.023 0 100-2.046 1.023 1.023 0 000 2.046zm173.077 2.456H144.911v90.639h181.872v-90.639z" fill="#fff"/>
  <path d="M157 139.425a.646.646 0 00-.643.644v32.512a.644.644 0 00.643.643h37.532a.643.643 0 00.643-.643v-32.512a.646.646 0 00-.643-.644H157zm60.262.105a.64.64 0 00-.454.189.64.64 0 00-.189.454v32.408c0 .17.068.334.189.454a.64.64 0 00.454.189h37.412a.643.643 0 00.643-.643v-32.408a.644.644 0 00-.643-.643h-37.412zm59.63-.34a.644.644 0 00-.643.644v32.747a.644.644 0 00.643.643h37.801a.643.643 0 00.643-.643v-32.747a.646.646 0 00-.643-.644h-37.801zm-119.205 50.127a1.33 1.33 0 000 2.66h35.287a1.331 1.331 0 001.327-1.33 1.328 1.328 0 00-1.327-1.33h-35.287z" fill="#E6E6E6"/>
  <path d="M157.687 195.643a1.328 1.328 0 00-1.327 1.33 1.327 1.327 0 001.327 1.33h15.887a1.333 1.333 0 001.327-1.33 1.328 1.328 0 00-1.327-1.33h-15.887z" fill="#CB8367"/>
  <path d="M218.596 189.317a1.328 1.328 0 000 2.66h35.287c.352-.001.69-.141.939-.39a1.332 1.332 0 00-.939-2.27h-35.287z" fill="#E6E6E6"/>
  <path d="M218.596 195.643a1.329 1.329 0 000 2.66h15.888a1.33 1.33 0 000-2.66h-15.888z" fill="#CB8367"/>
  <path d="M277.983 189.317a1.328 1.328 0 00-1.327 1.33 1.333 1.333 0 001.327 1.33h35.287c.352-.001.69-.141.939-.39a1.332 1.332 0 00-.939-2.27h-35.287zm-120.296-6.532a1.33 1.33 0 000 2.659h35.287a1.327 1.327 0 001.327-1.33 1.328 1.328 0 00-1.327-1.329h-35.287zm60.909 0a1.328 1.328 0 000 2.659h35.287a1.33 1.33 0 000-2.659h-35.287zm59.387 0a1.327 1.327 0 00-1.327 1.329 1.329 1.329 0 001.327 1.33h35.287a1.33 1.33 0 000-2.659h-35.287z" fill="#E6E6E6"/>
  <path d="M277.983 195.643a1.327 1.327 0 00-1.327 1.33 1.328 1.328 0 001.327 1.33h15.888a1.332 1.332 0 00.938-2.27 1.327 1.327 0 00-.938-.39h-15.888z" fill="#CB8367"/>
</svg>
