<svg xmlns="http://www.w3.org/2000/svg" fill="none" viewBox="0 0 191 242">
  <path d="M38.757 142.2H6.317A6.31 6.31 0 010 135.888V6.312A6.31 6.31 0 016.317 0h87.957l16.09 14.368V40.47h-.743V14.703L93.977.743H6.317A5.564 5.564 0 00.743 6.312v129.576c0 3.082 2.49 5.57 5.574 5.57h32.44v.742z" fill="#CCC"/>
  <path d="M109.992 14.851H99.959a6.31 6.31 0 01-6.317-6.312V.371c0-.222.149-.371.372-.371s.371.149.371.371V8.54c0 3.082 2.49 5.57 5.574 5.57h10.033c.223 0 .372.148.372.37 0 .224-.149.372-.372.372z" fill="#CCC"/>
  <path d="M97.544 33.6H12.82a2.98 2.98 0 00-2.973 2.971 2.98 2.98 0 002.973 2.97h84.724a2.98 2.98 0 002.973-2.97 2.957 2.957 0 00-2.973-2.97zM54.81 20.977H12.82a2.98 2.98 0 00-2.973 2.97 2.98 2.98 0 002.973 2.97h41.99a2.98 2.98 0 002.973-2.97c0-1.633-1.3-2.97-2.973-2.97zm-41.99 37.5a2.98 2.98 0 00-2.973 2.97 2.98 2.98 0 002.973 2.97h26.57v-5.94H12.82zm0-12.624a2.98 2.98 0 00-2.973 2.97 2.98 2.98 0 002.973 2.97h26.57v-5.94H12.82zm26.755 75.555H15.793a6.134 6.134 0 01-6.132-6.126V84.095c0-3.379 2.75-6.126 6.132-6.126h23.782v43.439z" fill="#E6E6E6"/>
  <path d="M77.96 182.113H45.52a6.31 6.31 0 01-6.317-6.312V46.224a6.31 6.31 0 016.317-6.311h87.957l16.09 14.368v24.616h-.743V54.615l-15.644-13.96H45.52a5.564 5.564 0 00-5.574 5.57V175.8a5.564 5.564 0 005.574 5.569h32.44v.743z" fill="#CCC"/>
  <path d="M149.196 54.764h-10.034a6.31 6.31 0 01-6.317-6.312v-8.168c0-.223.149-.371.372-.371s.372.148.372.37v8.17a5.563 5.563 0 005.573 5.568h10.034c.222 0 .371.149.371.372 0 .222-.149.37-.371.37z" fill="#CCC"/>
  <path d="M136.747 73.513H52.023a2.98 2.98 0 00-2.972 2.97 2.98 2.98 0 002.972 2.97h84.724a2.98 2.98 0 002.973-2.97 2.957 2.957 0 00-2.973-2.97zM94.014 60.89h-41.99a2.98 2.98 0 00-2.973 2.97 2.98 2.98 0 002.972 2.97h41.99a2.98 2.98 0 002.973-2.97c0-1.633-1.3-2.97-2.972-2.97z" fill="#E6E6E6"/>
  <path d="M136.747 73.513H52.023a2.98 2.98 0 00-2.972 2.97 2.98 2.98 0 002.972 2.97h84.724a2.98 2.98 0 002.973-2.97 2.957 2.957 0 00-2.973-2.97zM94.014 60.89h-41.99a2.98 2.98 0 00-2.973 2.97 2.98 2.98 0 002.972 2.97h41.99a2.98 2.98 0 002.973-2.97c0-1.633-1.3-2.97-2.972-2.97zm-41.991 37.5a2.98 2.98 0 00-2.972 2.969 2.98 2.98 0 002.972 2.971h26.57v-5.94h-26.57zm0-12.624a2.98 2.98 0 00-2.972 2.97 2.98 2.98 0 002.972 2.97h26.57v-5.94h-26.57z" fill="#E6E6E6"/>
  <path d="M52.023 98.39a2.98 2.98 0 00-2.972 2.969 2.98 2.98 0 002.972 2.971h26.57v-5.94h-26.57zm0-12.624a2.98 2.98 0 00-2.972 2.97 2.98 2.98 0 002.972 2.97h26.57v-5.94h-26.57zm26.755 75.555H54.996c-3.381 0-6.131-2.748-6.131-6.126v-31.188c0-3.378 2.75-6.126 6.131-6.126h23.782v43.44z" fill="#E6E6E6"/>
  <path d="M80.86 80.196a6.272 6.272 0 00-3.01 5.384v.928h.742v-.928c0-2.525 1.71-4.715 4.125-5.384H80.86zm91.263-.928H84.166a6.31 6.31 0 00-6.317 6.312v129.576a6.31 6.31 0 006.317 6.312h97.73a6.31 6.31 0 006.317-6.312V93.636l-16.09-14.368zm15.347 135.888c0 3.082-2.49 5.57-5.574 5.57h-97.73a5.565 5.565 0 01-5.574-5.57V85.58c0-2.525 1.71-4.715 4.125-5.384a6.46 6.46 0 011.45-.185h87.659l15.644 13.96v121.185zM80.86 80.196a6.272 6.272 0 00-3.01 5.384v.928h.742v-.928c0-2.525 1.71-4.715 4.125-5.384H80.86z" fill="#3F3D56"/>
  <path d="M187.841 94.12h-10.033a6.309 6.309 0 01-6.317-6.312v-8.169c0-.222.149-.37.372-.37s.371.148.371.37v8.169a5.565 5.565 0 005.574 5.569h10.033c.223 0 .372.148.372.371s-.149.371-.372.371z" fill="#3F3D56"/>
  <path d="M175.393 118.809H90.669a2.98 2.98 0 01-2.972-2.97 2.98 2.98 0 012.972-2.97h84.724a2.98 2.98 0 012.973 2.97 2.956 2.956 0 01-2.973 2.97zm-42.733-12.623H90.67a2.98 2.98 0 01-2.974-2.97 2.98 2.98 0 012.973-2.971h41.991a2.98 2.98 0 012.972 2.971c0 1.633-1.3 2.97-2.972 2.97zm42.733 37.499H90.669a2.98 2.98 0 01-2.972-2.97 2.98 2.98 0 012.972-2.97h84.724a2.98 2.98 0 012.973 2.97 2.957 2.957 0 01-2.973 2.97zm-42.733-12.623H90.67a2.98 2.98 0 01-2.974-2.971 2.98 2.98 0 012.973-2.97h41.991a2.98 2.98 0 012.972 2.97c0 1.634-1.3 2.971-2.972 2.971z" fill="#CCC"/>
  <path d="M172.42 200.676H93.642a6.134 6.134 0 01-6.131-6.126v-31.187a6.134 6.134 0 016.131-6.126h78.778c3.382 0 6.132 2.747 6.132 6.126v31.187c-.038 3.379-2.75 6.126-6.132 6.126z" fill="#CB8367"/>
</svg>
