<svg xmlns="http://www.w3.org/2000/svg" fill="none" viewBox="0 0 310 273">
  <path d="M227.298 207.297L56.32 255.159 0 47.863 170.978 0l56.32 207.297z" fill="#fff"/>
  <path d="M227.298 207.297L56.32 255.159 0 47.863 170.978 0l56.32 207.297zM58.497 251.279l164.926-46.192L168.801 3.881 3.821 50.072 58.498 251.28z" fill="#F1F1F1"/>
  <path d="M133.767 92.868l-42.837 12.02c-1.274.377-2.548-.377-2.92-1.671L76.173 59.72c-.372-1.293.371-2.587 1.645-2.964l42.891-12.02c1.274-.377 2.548.378 2.919 1.671l11.838 43.497a2.463 2.463 0 01-1.699 2.965zm-55.683-35.25c-.743.216-1.221 1.024-1.009 1.779l11.838 43.497c.212.754 1.008 1.239 1.751 1.024l42.838-12.02c.743-.215 1.221-1.024 1.008-1.778l-11.837-43.497c-.212-.755-1.009-1.24-1.752-1.024l-42.837 12.02z" fill="#E5E5E5"/>
  <path d="M122.885 101.654l-42.837 12.02c-1.115.323-2.283-.378-2.601-1.51L65.61 68.668c-.319-1.132.371-2.318 1.486-2.641l42.837-12.02c1.115-.323 2.283.377 2.601 1.51l11.838 43.496a2.127 2.127 0 01-1.487 2.641z" fill="#CB8367"/>
  <path d="M172.57 107.568L52.983 141.061l1.27 4.677 119.587-33.494-1.27-4.676zm3.292 12.243L56.275 153.305l1.27 4.676 119.587-33.493-1.27-4.677zm3.344 12.23L59.619 165.534l1.27 4.676 119.587-33.493-1.27-4.676zm5.846 21.561L65.465 187.095l1.27 4.677 119.587-33.494-1.27-4.676zm3.344 12.229L68.809 199.325l1.27 4.676 119.587-33.494-1.27-4.676zm3.292 12.244L72.101 211.568l1.27 4.677 119.587-33.494-1.27-4.676z" fill="#F1F1F1"/>
  <path d="M282.026 254.459H104.625V39.4h177.348v215.06h.053z" fill="#fff"/>
  <path d="M282.026 254.459H104.625V39.4h177.348v215.06h.053zm-174.269-3.18h171.084V42.634H107.757V251.28z" fill="#E5E5E5"/>
  <path d="M249.699 131.892H148.312v4.851h101.387v-4.851zm0 12.666H148.312v4.851h101.387v-4.851zm0 12.666H148.312v4.851h101.387v-4.851zm-109.615-19.026c1.73 0 3.132-1.424 3.132-3.18 0-1.757-1.402-3.18-3.132-3.18-1.73 0-3.132 1.423-3.132 3.18 0 1.756 1.402 3.18 3.132 3.18z" fill="#CB8367"/>
  <path d="M249.699 77.346H148.312v4.85h101.387v-4.85zm0 12.666H148.312v4.85h101.387v-4.85zm0 12.666H148.312v4.851h101.387v-4.851zM140.084 83.167c1.73 0 3.132-1.424 3.132-3.18 0-1.757-1.402-3.18-3.132-3.18-1.73 0-3.132 1.423-3.132 3.18 0 1.756 1.402 3.18 3.132 3.18zm109.615 103.81H148.312v4.851h101.387v-4.851zm0 12.666H148.312v4.851h101.387v-4.851zm0 12.612H148.312v4.851h101.387v-4.851zm-109.615-19.511c1.73 0 3.132-1.424 3.132-3.18 0-1.756-1.402-3.18-3.132-3.18-1.73 0-3.132 1.424-3.132 3.18 0 1.756 1.402 3.18 3.132 3.18z" fill="#E5E5E5"/>
  <path d="M273.745 273C293.768 273 310 256.518 310 236.187c0-20.332-16.232-36.813-36.255-36.813-20.023 0-36.255 16.481-36.255 36.813 0 20.331 16.232 36.813 36.255 36.813z" fill="#CB8367"/>
  <path d="M283.777 233.815v-7.061c0-5.605-4.512-10.187-10.032-10.187-5.521 0-10.033 4.582-10.033 10.187v7.061c-2.813.108-4.989 2.48-4.989 5.282v16.655h30.044v-16.655a5.285 5.285 0 00-4.99-5.282zm-10.032-13.636c3.609 0 6.529 2.964 6.529 6.629v7.007h-13.005v-7.007c-.053-3.665 2.866-6.629 6.476-6.629z" fill="#fff"/>
  <path d="M276.452 242.062c0-1.509-1.221-2.749-2.707-2.749-1.486 0-2.707 1.24-2.707 2.749 0 .916.424 1.778 1.167 2.264v5.982h3.026v-5.982a2.731 2.731 0 001.221-2.264z" fill="#CB8367"/>
</svg>
