<svg xmlns="http://www.w3.org/2000/svg" fill="none" viewBox="0 0 230 13">
  <path d="M9.077 4.447l.068.137-2.934 7.937H5.8L2.866 4.447l-.819-2.19L1.433.48H0V.274h5.05v.205H3.208l3.48 9.784 2.184-6.09.205.274zm76.03 5.132c0 .958-.41 1.642-1.365 2.121-.683.342-1.638.479-3.413.479h-2.252V6.363h.683c.887 0 1.501.069 1.842.137.615.205.956.684.956 1.368v.616h.341V3.9h-.341v.547c0 .548-.341 1.095-.75 1.3-.342.206-1.161.342-2.048.342h-.683V.547h2.048c1.706 0 2.661.137 3.276.48.682.41.887.752 1.092 2.189h.273l-.273-3.01H74.46v.341h1.774V12.11H74.46v.343h10.92V8.895h-.341v.684h.068zM14.674.479h1.774L12.9 10.263 9.42.48h1.842V.274h-5.05v.205h1.433l.614 1.779.683 1.916v-.069a.944.944 0 01.204.274l-.068.205 2.867 8.005h.41L16.72.547h1.502V.274h-3.618v.205h.069zM49.48 9.237c0 1.3-.342 2.053-1.16 2.463-.683.342-1.775.479-3.959.479h-1.843V.547h2.048V.274H38.97v.342h1.775v11.563H38.97v.342h10.852V8.484h-.341v.753zm-18.155 2.942h1.57v.342h-5.323v-.342h1.774l-1.365-3.695H23.82L23 10.81c-.137.411-.205.685-.205.822 0 .342.341.479 1.229.479h.546v.342h-3.822v-.342h.614c.75 0 .887-.137 1.365-1.369L26.549.068h.205l4.572 12.11zM27.914 8.21l-2.048-5.406-1.91 5.406h3.958zm33.1-3.011l2.663-2.395c.887-.82 1.842-1.573 2.525-1.984.341-.205.682-.274 1.16-.274h.956V.274H63.13v.342h.955c.683 0 .887.068.887.342 0 .205-.341.684-.887 1.163l-4.573 4.105V.547h1.843V.274h-5.392v.342h1.775v11.563h-1.775v.342h5.46v-.342h-1.91v-5.61l.204-.206 4.778 5.747h-1.707v.343h5.938v-.342h-1.843L61.014 5.2zm151.241-2.874c.819 1.095 1.297 2.532 1.297 4.037 0 1.71-.614 3.284-1.775 4.516-1.092 1.095-2.525 1.779-3.89 1.779-1.638 0-3.48-1.026-4.504-2.532-.751-1.094-1.16-2.463-1.16-3.831 0-1.78.682-3.353 1.911-4.516C205.294.616 206.659 0 208.024 0c1.365 0 3.139.958 4.231 2.326zm-.751 3.969c0-3.969-1.296-6.021-3.753-6.021-2.321 0-3.617 2.19-3.617 6.02 0 4.106 1.228 6.159 3.617 6.159 2.388 0 3.753-2.053 3.753-6.158zm-15.765 2.942c0 1.3-.341 2.053-1.16 2.463-.683.342-1.775.479-3.959.479h-1.843V.547h2.048V.274h-5.597v.342h1.775v11.563h-1.775v.342h10.784V8.484h-.341v.753h.068zM230 3.627c0 2.052-1.911 3.489-4.777 3.489-.819 0-1.365-.069-1.98-.342v5.405h1.843v.342h-5.392v-.342h1.775V.547h-1.775V.274h5.051c1.501 0 2.252.137 3.208.479 1.364.615 2.047 1.573 2.047 2.873zm-1.911.205c0-1.369-.478-2.327-1.501-2.874-.546-.274-1.502-.41-2.594-.41-.205 0-.409 0-.751.068v5.816c.546.273.956.41 1.638.41 1.092 0 2.048-.342 2.594-1.026.409-.548.614-1.163.614-1.984zM175.196.547h.478c1.296 0 1.365 0 1.365 1.506v7.184L169.941.274h-3.754v.342h1.433l.341.205v9.442c0 1.095 0 1.163-.068 1.369-.136.479-.341.547-1.092.547h-.614v.342h3.958v-.342h-.477c-1.297 0-1.365-.137-1.365-1.916V1.095l9.009 11.426h.136V2.053c0-1.506 0-1.506 1.229-1.506h.477V.274h-3.89v.273h-.068zm-34.33 5.816c0 2.395-1.16 4.38-3.071 5.405-1.092.548-1.979.685-4.231.685h-4.778v-.342h1.775V.546h-1.775V.274h4.505c2.184 0 2.525.068 3.412.273 2.525.753 4.163 3.01 4.163 5.816zm-2.047-.137c0-2.942-1.16-4.858-3.481-5.473-.75-.206-1.228-.206-3.071-.206V12.11c1.229 0 1.57 0 2.116-.068 1.501-.137 2.798-.752 3.48-1.71.683-.89.956-2.258.956-4.106zm-35.626 5.816l.136.274c-.477.205-.887.273-1.433.273-.819 0-1.297-.205-1.706-.684-.41-.41-.478-.684-.614-1.71l-.205-1.71c-.137-1.027-.41-1.506-1.16-1.848-.478-.205-1.365-.342-2.32-.342h-.683v5.884h1.91v.342h-5.46v-.342h1.775V.547H91.66V.274h6.279c1.501 0 2.525.342 3.139 1.026.478.479.683 1.163.683 1.916 0 .958-.478 1.779-1.365 2.258-.615.342-1.16.479-2.32.615 2.456.343 3.139 1.027 3.343 3.422l.137 1.3c.068 1.026.341 1.368.887 1.368.205.068.341 0 .751-.137zm-7.371-6.09c1.638 0 2.662-.273 3.208-.82.477-.48.75-1.164.75-1.848 0-.89-.41-1.779-1.023-2.19-.615-.41-1.229-.478-3.003-.478h-.683V6.02h.751v-.068zM155.813.548h.887c1.092 0 1.229.206 1.229 1.506v6.294c0 1.369-.137 1.985-.614 2.669-.683.89-1.775 1.368-3.208 1.368-1.229 0-2.252-.342-2.867-.958-.546-.547-.682-1.026-.682-2.668V.548h1.911V.273h-5.46v.342h1.774v8.073c0 1.643.137 2.121.615 2.669.819.958 2.184 1.368 4.299 1.368 1.57 0 2.594-.273 3.413-.958.887-.752 1.228-1.71 1.228-3.49V2.054c0-1.232.205-1.506 1.024-1.506h.751V.274h-4.163v.273h-.137z" fill="#000"/>
  <path d="M118.754 9.237l-1.092-1.095c.409-.753.682-1.642.682-2.531 0-.069 0-.274-.205-.274h-.273c-.136 0-.273 0-.273.274 0 .684-.136 1.368-.477 1.984l-1.775-1.78c.614-.41 1.638-1.162 1.638-2.12 0-.958-.682-1.71-1.911-1.71-1.365 0-1.979.957-1.979 1.847 0 .684.341 1.163.751 1.642l.273.273c-.614.342-1.57 1.027-1.57 2.258 0 1.095.751 2.053 2.184 2.053a3.19 3.19 0 002.457-1.095l.955.958c.137.205.342.137.478 0l.137-.137c.273-.273.136-.41 0-.547zm-4.846-5.474c0-.684.41-1.163 1.16-1.163.751 0 1.16.547 1.16 1.095 0 .82-.887 1.3-1.365 1.642l-.273-.274c-.409-.41-.75-.82-.682-1.3zm.887 5.542c-.751 0-1.433-.547-1.433-1.368 0-.89.751-1.437 1.228-1.78l2.048 2.19c-.41.616-1.024.958-1.843.958z" fill="#14BEF0"/>
</svg>
